<svg xmlns="http://www.w3.org/2000/svg" width="236" height="137" viewBox="0 0 236 137"><path fill="#FF817C" d="M115.823 43.685c-.339-.188-.714-.404-1.14-.649 1.485.855 1.704.978 1.14.649zm22.172-14.137c-.001.38-.003.717-.008 1.034.001.612.003.432.008-1.034zm.011-15.176c-.015-3.279-.226-3.57-3.253-5.335l-13.524-7.851c-2.546-1.43-3.088-1.484-5.427-.184-2.935 1.699-11.883 6.867-13.474 7.791-3.142 1.822-3.595 2.114-3.661 4.785l.005 16.81c.025 2.708.2 3.363 1.968 4.495 0 0 13.083 7.574 15.184 8.801 2.293 1.273 2.854 1.232 5.319-.147l14.166-8.218c2.383-1.407 2.642-1.881 2.679-4.738-.003-2.323.018-16.209.018-16.209zM114.683 1.641c.417-.24.786-.452 1.119-.638 1.359-.787 1.431-.831-1.119.638z"/><path fill="#90C9F3" d="M138.816 83.605a87.453 87.453 0 0 1-1.139-.648c1.487.856 1.706.979 1.139.648zM161 54.294c-.015-3.279-.225-3.57-3.252-5.335l-13.525-7.851c-2.543-1.429-3.087-1.484-5.418-.188-2.928 1.695-11.89 6.871-13.482 7.795-3.143 1.823-3.596 2.114-3.661 4.785l.005 16.81c.025 2.708.199 3.363 1.968 4.495 0 0 13.076 7.57 15.183 8.8 2.294 1.274 2.855 1.233 5.321-.146l14.166-8.218c2.372-1.401 2.64-1.876 2.679-4.702-.005-2.207.016-16.245.016-16.245zm-.01 15.176c-.001.394-.004.743-.008 1.069.001.567.003.366.008-1.069zm-23.312-27.907c.42-.242.792-.456 1.127-.642 1.351-.783 1.419-.825-1.127.642z"/><path fill="#86DFCF" d="M115.329 69.47c-.001.387-.003.73-.008 1.052 0 .589.003.398.008-1.052zM93.155 83.605a94.622 94.622 0 0 1-1.139-.648c1.487.856 1.705.98 1.139.648zm-1.139-42.042c.418-.241.789-.454 1.123-.64 1.355-.785 1.425-.828-1.123.64zm23.323 12.731c-.015-3.279-.226-3.57-3.252-5.335l-13.525-7.851c-2.543-1.43-3.087-1.484-5.422-.186-2.931 1.696-11.886 6.869-13.478 7.793-3.142 1.823-3.595 2.114-3.661 4.785l.004 16.81c.025 2.708.2 3.363 1.968 4.495 0 0 13.075 7.569 15.182 8.8 2.295 1.274 2.856 1.233 5.321-.146l14.167-8.218c2.377-1.403 2.64-1.879 2.678-4.72-.003-2.265.018-16.227.018-16.227z"/><path fill-rule="evenodd" clip-rule="evenodd" fill="#FFF" d="M19.535 108.926c-.28.04-.487.167-.62.38l-8.799 12.04-8.759-12.04c-.134-.213-.34-.34-.62-.38a.884.884 0 0 0-.74.221c-.48.347-.547.8-.2 1.359l9.399 12.84v12.48c0 .267.093.494.28.68a.92.92 0 0 0 .68.28.926.926 0 0 0 .68-.28.927.927 0 0 0 .28-.68v-12.561l9.359-12.76c.16-.213.22-.46.18-.74-.04-.279-.167-.485-.38-.619a.887.887 0 0 0-.74-.22zm14.898 13.22h-8.519c-.507 0-.76.253-.76.76s.253.76.76.76h8.519a.734.734 0 0 0 .54-.22.786.786 0 0 0 .22-.58c0-.48-.254-.72-.76-.72zm22.836 11c-1.493 1.146-3.273 1.72-5.339 1.72s-3.893-.767-5.479-2.3c-1.587-1.533-2.38-3.394-2.38-5.58s.793-4.054 2.38-5.601c1.586-1.546 3.419-2.319 5.499-2.319 2.08 0 3.853.587 5.319 1.76.48.347.92.294 1.32-.16a.917.917 0 0 0 .24-.72.76.76 0 0 0-.36-.601c-1.814-1.439-4.006-2.159-6.579-2.159-2.574 0-4.839.946-6.799 2.84-1.959 1.894-2.939 4.207-2.939 6.939 0 2.734.98 5.054 2.939 6.96 1.96 1.907 4.339 2.86 7.139 2.86 2.32 0 4.373-.693 6.159-2.08.56-.426.633-.88.22-1.36-.414-.479-.86-.545-1.34-.199zm18.478-15.959c-2.56 0-4.746.967-6.559 2.899-1.813 1.934-2.72 4.234-2.72 6.9 0 2.667.906 4.967 2.72 6.899 1.813 1.935 4 2.9 6.559 2.9s4.746-.966 6.559-2.9c1.813-1.933 2.72-4.232 2.72-6.899 0-2.666-.907-4.967-2.72-6.9-1.814-1.933-4-2.899-6.559-2.899zm5.179 15.359c-1.454 1.547-3.18 2.32-5.179 2.32s-3.727-.773-5.179-2.32c-1.454-1.546-2.18-3.406-2.18-5.58 0-2.173.726-4.033 2.18-5.58 1.453-1.546 3.18-2.319 5.179-2.319s3.726.773 5.179 2.319c1.453 1.547 2.18 3.407 2.18 5.58-.001 2.174-.727 4.034-2.18 5.58zm13.698-23.76c-.267 0-.494.094-.68.28s-.28.413-.28.68v26.08c0 .267.093.494.28.68a.92.92 0 0 0 .68.28c.266 0 .5-.093.7-.28.2-.186.3-.413.3-.68v-26.08c0-.267-.1-.493-.3-.68a.998.998 0 0 0-.7-.28zm10.958 0a.927.927 0 0 0-.68.28.925.925 0 0 0-.28.68v26.08c0 .267.093.494.28.68a.92.92 0 0 0 .68.28c.266 0 .5-.093.7-.28.2-.186.3-.413.3-.68v-26.08c0-.267-.1-.493-.3-.68a.998.998 0 0 0-.7-.28zm17.737 8.401c-2.573 0-4.786.96-6.639 2.88-1.854 1.92-2.779 4.233-2.779 6.939 0 2.707.926 5.014 2.779 6.92 1.853 1.907 4.099 2.86 6.74 2.86 1.625 0 3.139-.4 4.539-1.2a9.495 9.495 0 0 0 3.379-3.24c.32-.533.213-.986-.319-1.359-.534-.32-.96-.213-1.28.319a7.37 7.37 0 0 1-2.68 2.601 7.208 7.208 0 0 1-3.639.96c-2.027 0-3.773-.72-5.24-2.16-1.467-1.44-2.253-3.227-2.36-5.36h16.078c.266 0 .492-.08.68-.239a.802.802 0 0 0 .279-.641v-.16c-.213-2.586-1.213-4.753-2.999-6.5-1.786-1.747-3.965-2.62-6.539-2.62zm-7.379 8.279c.373-1.866 1.253-3.393 2.64-4.58 1.387-1.186 2.992-1.779 4.819-1.779 1.826 0 3.433.6 4.819 1.8s2.24 2.72 2.56 4.56H115.94zm38.435 7.68c-1.494 1.146-3.273 1.72-5.34 1.72s-3.893-.767-5.479-2.3c-1.587-1.533-2.38-3.394-2.38-5.58s.793-4.054 2.38-5.601c1.586-1.546 3.42-2.319 5.499-2.319s3.853.587 5.319 1.76c.48.347.92.294 1.32-.16.186-.213.266-.453.239-.72s-.147-.467-.36-.601c-1.813-1.439-4.006-2.159-6.578-2.159-2.574 0-4.84.946-6.799 2.84-1.961 1.894-2.94 4.207-2.94 6.939 0 2.734.979 5.054 2.94 6.96 1.959 1.907 4.339 2.86 7.139 2.86 2.319 0 4.372-.693 6.158-2.08.561-.426.634-.88.221-1.36-.413-.479-.859-.545-1.339-.199zm15.998-15.959h-2.52v-7.28c0-.24-.107-.46-.32-.66-.214-.2-.447-.3-.7-.3s-.479.1-.68.3-.3.42-.3.66v7.28h-2.439c-.534 0-.84.159-.92.479-.027.107-.041.294-.041.561s.054.479.16.64.373.24.801.24h2.439v14.279c0 .987.326 1.801.979 2.44s1.474.96 2.46.96c.24 0 .466-.1.68-.3.213-.2.32-.42.32-.66s-.107-.467-.32-.68c-.214-.214-.453-.32-.72-.32s-.567-.133-.899-.4a1.267 1.267 0 0 1-.5-1.04v-14.279h2.52c.24 0 .459-.101.66-.301.199-.199.299-.42.299-.659 0-.24-.1-.46-.299-.66-.201-.201-.42-.3-.66-.3zm12.117-6.401c-.267 0-.493.094-.68.28s-.279.413-.279.68v.92c0 .294.093.54.279.74s.413.3.68.3.5-.1.7-.3.3-.446.3-.74v-.92c0-.267-.1-.493-.3-.68s-.433-.28-.7-.28zm.021 6.401a.954.954 0 0 0-.979.96v17.68c0 .267.093.494.279.68.187.188.413.28.68.28s.5-.093.7-.28c.2-.186.3-.413.3-.68v-17.68a.935.935 0 0 0-.279-.681.958.958 0 0 0-.701-.279zm25.815.239a.906.906 0 0 0-.739 0 .837.837 0 0 0-.5.521l-6.519 15.439-6.52-15.439c-.08-.24-.254-.413-.52-.521-.534-.239-.934-.066-1.2.521a.855.855 0 0 0 0 .72l7.358 17.521c.054.134.16.279.32.439.213.107.434.16.66.16s.413-.086.56-.26.233-.34.261-.5l7.318-17.36c.242-.587.082-1.001-.479-1.241zm24.237 2.38c-1.786-1.746-3.966-2.619-6.539-2.619s-4.786.96-6.639 2.88c-1.854 1.92-2.779 4.233-2.779 6.939 0 2.707.926 5.014 2.779 6.92 1.853 1.907 4.1 2.86 6.739 2.86 1.626 0 3.14-.4 4.539-1.2s2.526-1.88 3.38-3.24c.319-.533.213-.986-.32-1.359-.533-.32-.96-.213-1.28.319a7.375 7.375 0 0 1-2.679 2.601c-1.12.64-2.334.96-3.64.96-2.027 0-3.773-.72-5.239-2.16-1.467-1.44-2.254-3.227-2.36-5.36h16.078c.267 0 .493-.08.68-.239a.8.8 0 0 0 .28-.641v-.16c-.214-2.587-1.214-4.754-3-6.501zm-13.918 5.66c.373-1.866 1.253-3.393 2.64-4.58 1.387-1.186 2.993-1.779 4.819-1.779s3.433.6 4.819 1.8 2.24 2.72 2.56 4.56h-14.838z"/></svg>